<svg width="440.8000183105469" height="91.72717144034502" viewBox="0 0 346 72" class="css-1j8o68f"><defs id="SvgjsDefs1350"></defs><g id="SvgjsG1351" featurekey="symbolFeature-0" transform="matrix(9.071180028221326,0,0,9.071180028221326,-5.983349982409732,-2.401504112085571)" fill="#791075"><g xmlns="http://www.w3.org/2000/svg" transform="translate(0,-288.53332)"><path style="color:;font-style:normal;font-variant:normal;font-weight:normal;font-stretch:normal;font-size:medium;line-height:normal;font-family:sans-serif;text-indent:0;text-align:start;text-decoration:none;text-decoration-line:none;text-decoration-style:solid;text-decoration-color:;letter-spacing:normal;word-spacing:normal;text-transform:none;direction:ltr;block-progression:tb;writing-mode:lr-tb;baseline-shift:baseline;text-anchor:start;white-space:normal;clip-rule:nonzero;display:inline;overflow:visible;visibility:visible;opacity:1;isolation:auto;mix-blend-mode:normal;color-interpolation:sRGB;color-interpolation-filters:linearRGB;solid-color:;solid-opacity:1;fill:#791075;fill-opacity:1;fill-rule:evenodd;stroke:none;stroke-width:0.26458409;stroke-linecap:round;stroke-linejoin:round;stroke-miterlimit:4;stroke-dasharray:none;stroke-dashoffset:0;stroke-opacity:1;color-rendering:auto;image-rendering:auto;shape-rendering:auto;text-rendering:auto;enable-background:accumulate" d="m 5.4550781,289.79883 a 0.13230528,0.13230528 0 0 0 -0.087891,0.0469 l -0.7714844,0.92383 -1.1015625,-0.50391 a 0.13230528,0.13230528 0 0 0 -0.1640625,0.19336 l 0.6269531,0.94727 -0.9101562,0.75781 a 0.13230528,0.13230528 0 0 0 0.099609,0.23242 l 1.2480468,-0.15625 0.625,1.0918 a 0.13230528,0.13230528 0 0 0 0.2460938,-0.0664 l 0,-1.21679 1.2207031,-0.15235 a 0.13230528,0.13230528 0 0 0 0.035156,-0.25195 l -1.0761719,-0.46289 0.1542969,-1.23437 a 0.13230528,0.13230528 0 0 0 -0.1445313,-0.14844 z m -0.1757812,0.56445 -0.109375,0.88477 A 0.13230528,0.13230528 0 0 0 5.25,291.38672 l 0.7207031,0.30859 -0.8535156,0.10547 a 0.13230528,0.13230528 0 0 0 -0.1152344,0.13086 l 0,0.83594 -0.4199219,-0.73438 A 0.13230528,0.13230528 0 0 0 4.4492188,291.9668 L 3.5625,292.07812 4.2167969,291.5332 a 0.13230528,0.13230528 0 0 0 0.025391,-0.17382 l -0.4375,-0.66211 0.7734375,0.35351 a 0.13230528,0.13230528 0 0 0 0.15625,-0.0352 l 0.5449219,-0.65234 z"></path><path style="color:;font-style:normal;font-variant:normal;font-weight:normal;font-stretch:normal;font-size:medium;line-height:normal;font-family:sans-serif;text-indent:0;text-align:start;text-decoration:none;text-decoration-line:none;text-decoration-style:solid;text-decoration-color:;letter-spacing:normal;word-spacing:normal;text-transform:none;direction:ltr;block-progression:tb;writing-mode:lr-tb;baseline-shift:baseline;text-anchor:start;white-space:normal;clip-rule:nonzero;display:inline;overflow:visible;visibility:visible;opacity:1;isolation:auto;mix-blend-mode:normal;color-interpolation:sRGB;color-interpolation-filters:linearRGB;solid-color:;solid-opacity:1;fill:#791075;fill-opacity:1;fill-rule:evenodd;stroke:none;stroke-width:0.26458406;stroke-linecap:round;stroke-linejoin:round;stroke-miterlimit:4;stroke-dasharray:none;stroke-dashoffset:0;stroke-opacity:1;color-rendering:auto;image-rendering:auto;shape-rendering:auto;text-rendering:auto;enable-background:accumulate" d="m 4.4140625,292.03711 a 0.13230526,0.13230526 0 0 0 -0.099609,0.0742 l -2.25,4.42969 a 0.13277213,0.13277213 0 1 0 0.2363281,0.12109 l 2.2480469,-4.43164 a 0.13230526,0.13230526 0 0 0 -0.1347656,-0.19336 z"></path><path style="color:;font-style:normal;font-variant:normal;font-weight:normal;font-stretch:normal;font-size:medium;line-height:normal;font-family:sans-serif;text-indent:0;text-align:start;text-decoration:none;text-decoration-line:none;text-decoration-style:solid;text-decoration-color:;letter-spacing:normal;word-spacing:normal;text-transform:none;direction:ltr;block-progression:tb;writing-mode:lr-tb;baseline-shift:baseline;text-anchor:start;white-space:normal;clip-rule:nonzero;display:inline;overflow:visible;visibility:visible;opacity:1;isolation:auto;mix-blend-mode:normal;color-interpolation:sRGB;color-interpolation-filters:linearRGB;solid-color:;solid-opacity:1;fill:#791075;fill-opacity:1;fill-rule:evenodd;stroke:none;stroke-width:0.26458409;stroke-linecap:round;stroke-linejoin:round;stroke-miterlimit:4;stroke-dasharray:none;stroke-dashoffset:0;stroke-opacity:1;color-rendering:auto;image-rendering:auto;shape-rendering:auto;text-rendering:auto;enable-background:accumulate" d="m 1.78125,288.79883 a 0.13230528,0.13230528 0 0 0 -0.109375,0.082 l -0.3144531,0.78711 -0.6230469,0.31055 a 0.13230528,0.13230528 0 0 0 0,0.23828 l 0.6230469,0.31054 0.3144531,0.78711 a 0.13230528,0.13230528 0 0 0 0.2460938,0 l 0.3144531,-0.78711 0.6230469,-0.31054 a 0.13230528,0.13230528 0 0 0 0,-0.23828 l -0.6230469,-0.31055 -0.3144531,-0.78711 a 0.13230528,0.13230528 0 0 0 -0.1367188,-0.082 z m 0.013672,0.48633 0.2109375,0.52734 a 0.13230528,0.13230528 0 0 0 0.064453,0.0703 L 2.5,290.09766 2.0703125,290.3125 a 0.13230528,0.13230528 0 0 0 -0.064453,0.0703 l -0.2109375,0.52735 -0.2109375,-0.52735 a 0.13230528,0.13230528 0 0 0 -0.0625,-0.0703 l -0.4296875,-0.21484 0.4296875,-0.21485 a 0.13230528,0.13230528 0 0 0 0.0625,-0.0703 l 0.2109375,-0.52734 z"></path><path style="color:;font-style:normal;font-variant:normal;font-weight:normal;font-stretch:normal;font-size:medium;line-height:normal;font-family:sans-serif;text-indent:0;text-align:start;text-decoration:none;text-decoration-line:none;text-decoration-style:solid;text-decoration-color:;letter-spacing:normal;word-spacing:normal;text-transform:none;direction:ltr;block-progression:tb;writing-mode:lr-tb;baseline-shift:baseline;text-anchor:start;white-space:normal;clip-rule:nonzero;display:inline;overflow:visible;visibility:visible;opacity:1;isolation:auto;mix-blend-mode:normal;color-interpolation:sRGB;color-interpolation-filters:linearRGB;solid-color:;solid-opacity:1;fill:#791075;fill-opacity:1;fill-rule:evenodd;stroke:none;stroke-width:0.26458406;stroke-linecap:round;stroke-linejoin:round;stroke-miterlimit:4;stroke-dasharray:none;stroke-dashoffset:0;stroke-opacity:1;color-rendering:auto;image-rendering:auto;shape-rendering:auto;text-rendering:auto;enable-background:accumulate" d="m 6.3066406,294.30078 a 0.13230526,0.13230526 0 0 0 -0.1230468,0.0762 l -0.2578126,0.55078 -0.5097656,0.21875 a 0.13230526,0.13230526 0 0 0 0,0.24219 l 0.5097656,0.21875 0.2578126,0.55078 a 0.13230526,0.13230526 0 0 0 0.2382812,0 l 0.2578125,-0.55078 0.5097656,-0.21875 a 0.13230526,0.13230526 0 0 0 0,-0.24219 L 6.6796875,294.92773 6.421875,294.37695 a 0.13230526,0.13230526 0 0 0 -0.1152344,-0.0762 z m -0.00391,0.44531 0.1582031,0.33985 a 0.13230526,0.13230526 0 0 0 0.068359,0.0645 l 0.2734375,0.11719 -0.2734375,0.11719 a 0.13230526,0.13230526 0 0 0 -0.068359,0.0645 l -0.1582031,0.33984 -0.1582032,-0.33984 a 0.13230526,0.13230526 0 0 0 -0.068359,-0.0645 l -0.2734375,-0.11719 0.2734375,-0.11719 a 0.13230526,0.13230526 0 0 0 0.068359,-0.0645 l 0.1582032,-0.33985 z"></path><path style="color:;font-style:normal;font-variant:normal;font-weight:normal;font-stretch:normal;font-size:medium;line-height:normal;font-family:sans-serif;text-indent:0;text-align:start;text-decoration:none;text-decoration-line:none;text-decoration-style:solid;text-decoration-color:;letter-spacing:normal;word-spacing:normal;text-transform:none;direction:ltr;block-progression:tb;writing-mode:lr-tb;baseline-shift:baseline;text-anchor:start;white-space:normal;clip-rule:nonzero;display:inline;overflow:visible;visibility:visible;opacity:1;isolation:auto;mix-blend-mode:normal;color-interpolation:sRGB;color-interpolation-filters:linearRGB;solid-color:;solid-opacity:1;fill:#791075;fill-opacity:1;fill-rule:nonzero;stroke:none;stroke-width:0.26458409;stroke-linecap:round;stroke-linejoin:round;stroke-miterlimit:4;stroke-dasharray:none;stroke-dashoffset:0;stroke-opacity:1;color-rendering:auto;image-rendering:auto;shape-rendering:auto;text-rendering:auto;enable-background:accumulate" d="m 1.2949219,291.80078 c -0.255825,0 -0.46679814,0.20906 -0.4667969,0.46484 -1.24e-6,0.25579 0.2109719,0.4668 0.4667969,0.4668 0.255825,0 0.464845,-0.21101 0.4648437,-0.4668 1.3e-6,-0.25578 -0.2090187,-0.46484 -0.4648437,-0.46484 z m 0,0.26367 c 0.1129701,0 0.2011724,0.0885 0.2011719,0.20117 5e-7,0.11266 -0.088202,0.20118 -0.2011719,0.20118 -0.1129701,0 -0.2011724,-0.0885 -0.2011719,-0.20118 -5e-7,-0.11265 0.088202,-0.20117 0.2011719,-0.20117 z"></path><path style="color:;font-style:normal;font-variant:normal;font-weight:normal;font-stretch:normal;font-size:medium;line-height:normal;font-family:sans-serif;text-indent:0;text-align:start;text-decoration:none;text-decoration-line:none;text-decoration-style:solid;text-decoration-color:;letter-spacing:normal;word-spacing:normal;text-transform:none;direction:ltr;block-progression:tb;writing-mode:lr-tb;baseline-shift:baseline;text-anchor:start;white-space:normal;clip-rule:nonzero;display:inline;overflow:visible;visibility:visible;opacity:1;isolation:auto;mix-blend-mode:normal;color-interpolation:sRGB;color-interpolation-filters:linearRGB;solid-color:;solid-opacity:1;fill:#791075;fill-opacity:1;fill-rule:nonzero;stroke:none;stroke-width:0.26458409;stroke-linecap:round;stroke-linejoin:round;stroke-miterlimit:4;stroke-dasharray:none;stroke-dashoffset:0;stroke-opacity:1;color-rendering:auto;image-rendering:auto;shape-rendering:auto;text-rendering:auto;enable-background:accumulate" d="m 7.4707031,292.9668 c -0.2558247,0 -0.464845,0.21101 -0.4648437,0.46679 -1.3e-6,0.25579 0.209019,0.46485 0.4648437,0.46485 0.2558246,0 0.4667981,-0.20906 0.4667969,-0.46485 1.2e-6,-0.25578 -0.2109723,-0.46679 -0.4667969,-0.46679 z m 0,0.26562 c 0.1129699,0 0.2031256,0.0885 0.203125,0.20117 6e-7,0.11266 -0.090155,0.20118 -0.203125,0.20118 -0.1129699,0 -0.2011724,-0.0885 -0.2011719,-0.20118 -5e-7,-0.11265 0.088202,-0.20117 0.2011719,-0.20117 z"></path><path style="color:;font-style:normal;font-variant:normal;font-weight:normal;font-stretch:normal;font-size:medium;line-height:normal;font-family:sans-serif;text-indent:0;text-align:start;text-decoration:none;text-decoration-line:none;text-decoration-style:solid;text-decoration-color:;letter-spacing:normal;word-spacing:normal;text-transform:none;direction:ltr;block-progression:tb;writing-mode:lr-tb;baseline-shift:baseline;text-anchor:start;white-space:normal;clip-rule:nonzero;display:inline;overflow:visible;visibility:visible;opacity:1;isolation:auto;mix-blend-mode:normal;color-interpolation:sRGB;color-interpolation-filters:linearRGB;solid-color:;solid-opacity:1;fill:#791075;fill-opacity:1;fill-rule:nonzero;stroke:none;stroke-width:0.26458409;stroke-linecap:round;stroke-linejoin:round;stroke-miterlimit:4;stroke-dasharray:none;stroke-dashoffset:0;stroke-opacity:1;color-rendering:auto;image-rendering:auto;shape-rendering:auto;text-rendering:auto;enable-background:accumulate" d="m 4.5507812,295.46875 c -0.2097189,0 -0.3828051,0.17309 -0.3828124,0.38281 7.3e-6,0.20973 0.1730935,0.38281 0.3828124,0.38282 0.2097195,-10e-6 0.3808521,-0.17309 0.3808594,-0.38282 -7.3e-6,-0.20972 -0.1711399,-0.38281 -0.3808594,-0.38281 z m 0,0.26563 c 0.066869,0 0.1171852,0.0506 0.1171876,0.11718 -2.4e-6,0.0666 -0.050319,0.11719 -0.1171876,0.11719 -0.066868,0 -0.1191382,-0.0506 -0.1191406,-0.11719 2.4e-6,-0.0666 0.052272,-0.11718 0.1191406,-0.11718 z"></path><path style="color:;font-style:normal;font-variant:normal;font-weight:normal;font-stretch:normal;font-size:medium;line-height:normal;font-family:sans-serif;text-indent:0;text-align:start;text-decoration:none;text-decoration-line:none;text-decoration-style:solid;text-decoration-color:;letter-spacing:normal;word-spacing:normal;text-transform:none;direction:ltr;block-progression:tb;writing-mode:lr-tb;baseline-shift:baseline;text-anchor:start;white-space:normal;clip-rule:nonzero;display:inline;overflow:visible;visibility:visible;opacity:1;isolation:auto;mix-blend-mode:normal;color-interpolation:sRGB;color-interpolation-filters:linearRGB;solid-color:;solid-opacity:1;fill:#791075;fill-opacity:1;fill-rule:nonzero;stroke:none;stroke-width:0.26458409;stroke-linecap:round;stroke-linejoin:round;stroke-miterlimit:4;stroke-dasharray:none;stroke-dashoffset:0;stroke-opacity:1;color-rendering:auto;image-rendering:auto;shape-rendering:auto;text-rendering:auto;enable-background:accumulate" d="m 4.0488281,289.13086 c -0.2097252,0 -0.3828135,0.17308 -0.3828125,0.38281 7.4e-6,0.20973 0.1730931,0.38281 0.3828125,0.38281 0.2097195,0 0.3828052,-0.17308 0.3828125,-0.38281 1e-6,-0.20973 -0.1730872,-0.38281 -0.3828125,-0.38281 z m 0,0.26562 c 0.066871,0 0.119141,0.0506 0.1191407,0.11719 -2.4e-6,0.0666 -0.052272,0.11719 -0.1191407,0.11719 -0.066868,0 -0.1171851,-0.0506 -0.1171875,-0.11719 -3e-7,-0.0666 0.050317,-0.11719 0.1171875,-0.11719 z"></path><path style="color:;font-style:normal;font-variant:normal;font-weight:normal;font-stretch:normal;font-size:medium;line-height:normal;font-family:sans-serif;text-indent:0;text-align:start;text-decoration:none;text-decoration-line:none;text-decoration-style:solid;text-decoration-color:;letter-spacing:normal;word-spacing:normal;text-transform:none;direction:ltr;block-progression:tb;writing-mode:lr-tb;baseline-shift:baseline;text-anchor:start;white-space:normal;clip-rule:nonzero;display:inline;overflow:visible;visibility:visible;opacity:1;isolation:auto;mix-blend-mode:normal;color-interpolation:sRGB;color-interpolation-filters:linearRGB;solid-color:;solid-opacity:1;fill:#791075;fill-opacity:1;fill-rule:nonzero;stroke:none;stroke-width:0.26458409;stroke-linecap:round;stroke-linejoin:round;stroke-miterlimit:4;stroke-dasharray:none;stroke-dashoffset:0;stroke-opacity:1;color-rendering:auto;image-rendering:auto;shape-rendering:auto;text-rendering:auto;enable-background:accumulate" d="m 7.5546875,290.54883 c -0.2097195,0 -0.3828051,0.17309 -0.3828125,0.38281 7.4e-6,0.20972 0.173093,0.38281 0.3828125,0.38281 0.2097196,0 0.3828051,-0.17309 0.3828125,-0.38281 -7.4e-6,-0.20972 -0.1730929,-0.38281 -0.3828125,-0.38281 z m 0,0.26562 c 0.066869,0 0.1191383,0.0506 0.1191406,0.11719 -2.3e-6,0.0666 -0.052272,0.11719 -0.1191406,0.11719 -0.066868,0 -0.1171852,-0.0506 -0.1171875,-0.11719 2.3e-6,-0.0666 0.050319,-0.11719 0.1171875,-0.11719 z"></path></g></g><g id="SvgjsG1352" featurekey="nameFeature-0" transform="matrix(1.6724056348445846,0,0,1.6724056348445846,82.65602706555006,-5.381055422797374)" fill="#3f63af"><path d="M10.16 9.8 c-0.76 0.04 -1.52 0.16 -2.28 0.4 c-1.64 0.56 -3.12 1.68 -4.12 3.12 c-0.88 1.32 -1.24 2.88 -1.36 4.44 c-0.08 1.2 0.04 2.44 0.6 3.52 c0.6 1.16 1.64 2.16 2.52 3.12 c0.8 0.84 1.6 1.68 2.48 2.44 c0.8 0.76 1.72 1.36 2.52 2.16 c1.16 1.16 1.6 3.8 0.76 5.24 c-1 1.6 -3.36 1.84 -4.92 1.32 c-0.8 -0.28 -1.52 -0.88 -2.2 -1.36 c-0.4 -0.28 -0.88 -0.4 -1.16 0.08 c-0.16 0.24 -0.24 0.52 -0.32 0.76 c-0.28 1 -0.64 1.92 -0.68 3 c-0.04 1.24 2.32 1.6 3.2 1.8 c3.92 0.92 8.64 0.2 10.68 -3.68 c0.4 -0.8 0.68 -1.64 0.84 -2.52 c0.04 -0.32 0.08 -0.6 0.08 -0.92 c0.16 -2.56 -0.88 -4.72 -2.44 -6.64 c-1.68 -2.08 -3.8 -3.52 -5.76 -5.32 c-1.2 -1.12 -1.64 -2.88 -1.28 -4.48 c0.36 -1.72 2.32 -2.16 3.8 -1.72 c0.44 0.12 0.8 0.32 1.2 0.56 c0.24 0.12 0.48 0.28 0.8 0.28 c0.56 0.04 0.64 -0.4 0.76 -0.84 c0.28 -1 0.76 -1.8 0.96 -2.76 c0.2 -1.08 -0.68 -1.28 -1.56 -1.56 c-1.04 -0.28 -2.04 -0.48 -3.12 -0.44 z M27.062 29.68 c-0.12 -4.56 -0.08 -9.4 -0.04 -13.92 c0 -1.4 -0.08 -2.92 -0.08 -4.32 c0 -1.52 -0.6 -1.44 -1.4 -1.48 c-1.16 -0.04 -1.68 -0.04 -2.84 -0.04 c-0.76 -0.04 -1.08 0.16 -1.08 0.92 c0 3.92 -0.12 15 -0.08 16.6 s0.2 8.88 0.12 10.48 c-0.04 0.56 0 1.12 0.04 1.68 c0.04 0.2 0.16 0.4 0.48 0.4 c1.32 -0.08 2.56 -0.08 3.88 -0.12 c0.48 -0.04 0.88 -0.16 1.08 -0.68 c0.04 -0.28 -0.08 -7.6 -0.08 -9.52 z M37.684 10.04 c-0.4 0 -0.8 0.04 -1.2 0.04 c-0.6 0 -1.32 -0.12 -1.44 0.68 c-0.4 3.4 -0.76 7.16 -1.16 10.56 c-0.68 5.6 -1.32 11.36 -1.96 16.96 c-0.08 0.76 -0.16 1.48 0.68 1.64 c1.28 0.08 2.24 0.08 3.32 0.04 c0.4 0.04 0.84 0.08 0.96 -0.4 c0.08 -0.2 0.08 -0.4 0.08 -0.6 c0.08 -0.92 1.28 -12.44 1.76 -12.44 c0.76 0 2.76 9.36 3.72 12.8 c0.12 0.48 0.36 0.68 0.84 0.64 c1 -0.08 1.96 0 2.96 0 s0.8 -0.64 1 -1.48 c0.24 -0.92 2.56 -12 3.12 -12 c0.64 0 1.96 12.84 2.08 13.12 c0.24 0.56 0.92 0.32 1.4 0.32 c0.72 0 1.4 0.08 2.32 0 c0.68 -0.08 1.36 0.16 1.4 -0.72 c0 -0.2 -0.08 -0.4 -0.12 -0.6 c-0.16 -1 -0.36 -2.2 -0.56 -3.2 c-0.28 -2.08 -0.68 -4.12 -0.96 -6.2 c-0.4 -3.28 -0.8 -6.56 -1.16 -9.84 c-0.28 -2.8 -0.68 -5.96 -0.92 -8.76 c-0.08 -0.92 -1.12 -0.6 -1.76 -0.6 l-2.76 0 c-0.44 0 -0.64 0.84 -0.72 1.28 c-0.24 1.12 -3 15.56 -3.92 15.56 s-3.88 -13.2 -4.4 -16.08 c-0.12 -0.64 -0.56 -0.84 -1.16 -0.84 z M94.128 17.36 c0.84 2.48 1.04 5.16 1.04 7.8 c0 2.2 -0.4 4.32 -0.96 6.44 c-0.72 2.52 -1.92 4.8 -4.08 6.28 c-1.6 1.16 -3.28 1.92 -5.24 2.12 c-0.28 0 -0.52 0.04 -0.8 0.04 c-0.24 0 -0.48 -0.04 -0.76 -0.04 c-1.96 -0.2 -3.64 -0.96 -5.28 -2.12 c-2.12 -1.48 -3.36 -3.76 -4.04 -6.28 c-0.6 -2.12 -0.96 -4.24 -0.96 -6.44 c0 -2.64 0.2 -5.32 1.04 -7.8 c1.48 -4.28 5.56 -7.32 10 -7.4 c4.44 0.08 8.52 3.12 10.04 7.4 z M90.248 28.08 c0.4 -2.44 0.24 -4.92 -0.24 -7.36 c-0.48 -2.2 -1.44 -4.36 -3.28 -5.68 c-0.32 -0.24 -0.68 -0.44 -1.04 -0.56 c-0.52 -0.24 -1.08 -0.32 -1.6 -0.32 s-1.04 0.08 -1.56 0.32 c-0.4 0.12 -0.72 0.32 -1.04 0.56 c-1.88 1.32 -2.84 3.48 -3.28 5.68 c-0.48 2.44 -0.64 4.92 -0.24 7.36 c0.4 2.2 1.2 5.16 3.28 6.28 c0.88 0.48 1.84 0.8 2.84 0.84 c1 -0.04 2 -0.36 2.88 -0.84 c2.08 -1.12 2.88 -4.08 3.28 -6.28 z M116.94999999999999 10.920000000000002 c0.12 0.56 0.04 27.2 0.04 27.88 c0 1.2 -0.44 1.16 -1.24 1.16 c-1.2 0 -2.88 0.2 -3.24 -0.2 c-0.32 -0.28 -6.24 -14.56 -7.08 -16.36 c-0.08 -0.16 -0.28 -0.56 -0.44 -0.48 c-0.2 0.08 -0.12 0.36 -0.12 0.52 c-0.04 1.4 0.2 13.48 0.2 15.4 c0 0.96 -0.04 1.12 -0.84 1.12 l-2 0 c-0.52 0 -1.16 -0.04 -1.68 0.04 c-0.4 0 -0.6 -0.12 -0.64 -0.52 l0 -3.16 c0.08 -3.36 0 -23.28 0 -24.76 c0 -1.28 0.36 -1.52 1.64 -1.52 c0.88 -0.04 1.76 -0.04 2.64 -0.04 c0.28 0 0.44 0.04 0.6 0.4 c1.08 2.52 5.68 14.08 6.4 15.48 c0.12 0.28 0.56 1.4 0.8 1.52 l0.04 0 c0.16 -0.16 0.12 -0.96 0.12 -1.2 c0 -0.6 -0.32 -14.64 -0.32 -14.92 c0 -0.4 -0.12 -0.76 0.08 -1.04 c0.12 -0.16 0.64 -0.2 0.84 -0.24 c1.12 -0.08 2.44 0.04 3.56 0 c0.56 0 0.52 0.4 0.64 0.92 z M132.594 15.239999999999998 c0.04 2.36 0.04 22.4 0.04 24.04 c0 0.6 0.08 0.72 0.68 0.72 c1.36 0 1.36 0.04 2.72 0 c0.28 0 0.76 0 1 -0.12 c0.28 -0.12 0.12 -9.56 0.12 -10.08 c0 -0.56 1.12 -0.44 1.44 -0.44 c6.68 0 8.52 -4.8 8.52 -8.88 c0 -3.68 -0.72 -10.48 -9.04 -10.48 c-1.44 0 -2.92 0.04 -4.32 0.04 c-0.32 0 -0.72 -0.04 -1 0.16 c-0.32 0.24 -0.2 3.8 -0.16 5.04 z M137.194 23.48 c0 -0.88 -0.04 -6.12 0 -7.72 c0 -0.24 -0.04 -0.52 0 -0.8 c0.12 -0.44 0.64 -0.44 1.04 -0.4 c2.32 0.16 3.64 2.2 3.84 4.36 c0.16 1.56 -0.04 3.88 -1.16 5.12 c-0.8 0.84 -1.84 1.36 -3.2 1.36 c-0.28 0 -0.56 -0.32 -0.56 -0.6 c0 -0.44 0 -0.88 0.04 -1.32 z M157.376 29.68 c-0.12 -4.56 -0.08 -9.4 -0.04 -13.92 c0 -1.4 -0.08 -2.92 -0.08 -4.32 c0 -1.52 -0.6 -1.44 -1.4 -1.48 c-1.16 -0.04 -1.68 -0.04 -2.84 -0.04 c-0.76 -0.04 -1.08 0.16 -1.08 0.92 c0 3.92 -0.12 15 -0.08 16.6 s0.2 8.88 0.12 10.48 c-0.04 0.56 0 1.12 0.04 1.68 c0.04 0.2 0.16 0.4 0.48 0.4 c1.32 -0.08 2.56 -0.08 3.88 -0.12 c0.48 -0.04 0.88 -0.16 1.08 -0.68 c0.04 -0.28 -0.08 -7.6 -0.08 -9.52 z"></path></g></svg>
